# xmcd
#
# Track frame offsets:
#	150
#	10015
#	22810
#	32765
#	49047
#	62555
#	74027
#	87302
#
# Disc length: 1309 seconds
#
# Revision: 0
# Processed by: cddbd v1.5.1PL0 Copyright (c) Steve Scherf et al.
# Submitted via: dBpowerAMP V4.0
#
DISCID=5e051b08
DTITLE=Dave Dudley - Six Days on the Road
DYEAR=1996
DGENRE=Country
TTITLE0=Six days on the road
TTITLE1=There ain't no easy runs
TTITLE2=Fly away again
TTITLE3=Eagle
TTITLE4=Freightliner fever
TTITLE5=Cowboy boots
TTITLE6=Mad
TTITLE7=A tombstone every mile
EXTD=Original SUN Recordings
EXTT0=
EXTT1=
EXTT2=
EXTT3=
EXTT4=
EXTT5=
EXTT6=
EXTT7=
PLAYORDER=
